<svg xmlns:xlink="http://www.w3.org/1999/xlink" xmlns="http://www.w3.org/2000/svg" viewBox="0 0 24 24" width="48"  height="48" ><path style= "fill:white;" d="M 12 2 C 6.4889971 2 2 6.4889971 2 12 C 2 17.511003 6.4889971 22 12 22 C 17.511003 22 22 17.511003 22 12 C 22 6.4889971 17.511003 2 12 2 z M 12 4 C 16.430123 4 20 7.5698774 20 12 C 20 16.430123 16.430123 20 12 20 C 7.5698774 20 4 16.430123 4 12 C 4 7.5698774 7.5698774 4 12 4 z M 12 7.0058594 C 10.718253 7.0058594 9.4369556 7.4927318 8.4648438 8.4648438 C 6.5206197 10.409068 6.5206197 13.590932 8.4648438 15.535156 C 10.409068 17.47938 13.590932 17.47938 15.535156 15.535156 L 14.121094 14.121094 C 12.941318 15.30087 11.058682 15.30087 9.8789062 14.121094 C 8.6991302 12.941318 8.6991302 11.058682 9.8789062 9.8789062 C 11.058682 8.6991302 12.941318 8.6991302 14.121094 9.8789062 L 15.535156 8.4648438 C 14.563044 7.4927317 13.281747 7.0058594 12 7.0058594 z"></path></svg>
