<svg version="1.1" xmlns="http://www.w3.org/2000/svg" xmlns:xlink="http://www.w3.org/1999/xlink" viewBox="0 0 172 172" width="48"  height="48" ><g fill="none" fill-rule="nonzero" stroke="none" stroke-width="1" stroke-linecap="butt" stroke-linejoin="miter" stroke-miterlimit="10" stroke-dasharray="" stroke-dashoffset="0" font-family="none" font-weight="none" font-size="none" text-anchor="none" style="mix-blend-mode: normal"><path d="M0,172v-172h172v172z" fill="none"></path><g fill="#69043B"><path d="M86,21.5c-35.56738,0 -64.5,28.93262 -64.5,64.5c0,35.56739 28.93262,64.5 64.5,64.5c35.56739,0 64.5,-28.93261 64.5,-64.5c0,-35.56738 -28.93261,-64.5 -64.5,-64.5zM86,32.25c10.58203,0 20.4082,3.14942 28.72266,8.39844l-4.36719,0.50391l1.00781,10.75l-5.71094,-2.51953l-4.70312,4.03125l0.83984,11.08594l11.58984,-3.69531l14.44531,4.70313l-3.69531,6.71875l-8.73437,-5.375l-9.40625,1.34375l-9.23828,6.88672l-5.20703,16.125l10.41406,8.56641c0,0 10.68701,-1.84766 11.25391,-1.84766c0.5669,0 4.53516,9.74219 4.53516,9.74219l-8.56641,26.875c-6.9917,3.33838 -14.88623,5.20703 -23.17969,5.20703c-1.70068,0 -3.38037,-0.18896 -5.03906,-0.33594l-5.87891,-10.24609l5.71094,-21.5l-21.66797,-16.29297h-19.98828l-5.20703,-10.58203l14.44531,-11.42187l21.5,-10.24609l-3.19141,-14.27734l9.23828,-2.01562l4.36719,6.04688l16.125,-3.02344l-2.85547,-12.42969l-11.92578,-0.83984c1.42773,-0.10498 2.89746,-0.33594 4.36719,-0.33594zM79.95313,32.58594l-8.39844,3.52734l-4.03125,-0.67187c3.96826,-1.44873 8.08349,-2.37256 12.42969,-2.85547zM32.58594,90.19922l5.20703,6.04688v11.08594l10.07813,11.08594h6.21484l15.28516,18.8125c-20.28222,-6.57178 -35.08447,-24.94336 -36.78516,-47.03125z"></path></g></g></svg>
